<svg xmlns="http://www.w3.org/2000/svg" version="1.1" xmlns:xlink="http://www.w3.org/1999/xlink" xmlns:svgjs="http://svgjs.dev/svgjs" viewBox="0 0 800 400"><path d="M401.19580078125,102.24214935302734C402.4394482421875,102.40956349690755,445.2496207682292,108.28101674397786,447.83258056640625,108.52017974853516C450.4155403645833,108.75934275309245,495.9521594238281,110.51718963623047,498.0567932128906,111.21076202392578C500.16142700195314,111.9043344116211,525.6801147460938,133.42899475097656,526.75634765625,134.52914428710938C527.8325805664062,135.6292938232422,538.2002815755209,151.4858015950521,538.41552734375,152.46636962890625C538.6307731119791,153.4469376627604,535.3063891601563,170.3198779296875,534.8280639648438,171.30044555664062C534.3497387695312,172.28101318359376,521.6263142903646,188.5919158935547,520.4783325195312,189.23765563964844C519.3303507486979,189.88339538574218,493.64421875,195.22869018554687,491.77874755859375,195.51568603515625C489.9132763671875,195.80268188476563,452.31688435872394,199.88041829427084,450.5231628417969,200C448.7294413248698,200.11958170572916,426.5231595865885,200.14349772135418,424.5141906738281,200C422.50522176106773,199.85650227864582,377.62629069010416,195.0732450358073,375.18682861328125,194.61883544921875C372.74736653645834,194.1644258626302,334.27801025390625,183.50971537272136,333.03436279296875,182.9596405029297C331.79071533203125,182.40956563313802,328.7892114257813,174.8520145670573,328.550048828125,173.99102783203125C328.3108862304687,173.1300410970052,324.13751424153645,151.5814571126302,324.0657653808594,150.67263793945312C323.9940165201823,149.76381876627605,325.548555094401,140.60388122558595,325.8594665527344,139.91030883789062C326.1703780110677,139.2167364501953,335.1748701985677,125.28549692789714,335.7249450683594,124.6636734008789C336.27501993815105,124.04184987386067,345.79370157877605,116.9745873006185,346.4872741699219,116.59192657470703C347.1808467610677,116.20926584879557,360.9685957845052,110.55305918375652,361.7339172363281,110.31389617919922C362.499238688151,110.07473317464192,374.5889217122396,107.74289540608724,375.18682861328125,107.6233139038086C375.7847355143229,107.50373240152994,383.67710001627603,105.9252549235026,384.1554260253906,105.82958984375C384.6337520345052,105.7339247639974,392.26306681315106,104.08370585123699,393.1240539550781,104.03587341308594C393.9850410970052,103.98804097493489,415.5814575195312,104.03587341308594,416.44244384765625,104.03587341308594C417.3034301757813,104.03587341308594,424.6935526529948,103.98804097493489,425.4110412597656,104.03587341308594C426.12852986653644,104.08370585123699,442.3437825520833,105.75784098307291,443.3482666015625,105.82958984375C444.3527506510417,105.90133870442709,462.36170450846356,106.70253926595052,463.0791931152344,106.72645568847656C463.7966817220052,106.7503721110026,469.5844327799479,106.678623046875,470.25408935546875,106.72645568847656C470.9237459309896,106.77428833007812,487.30641153971357,108.3049331665039,488.1913146972656,108.52017974853516C489.0762178548177,108.73542633056641,502.8161340332031,114.43945821126302,503.4379577636719,114.79820251464844C504.0597814941406,115.15694681803386,511.1270442708333,121.59043039957682,511.50970458984375,121.97309112548828C511.8923649088542,122.35575185139975,517.2615608723959,128.55007263183595,517.7877197265625,129.14797973632812C518.3138785807291,129.7458868408203,530.8101684570313,143.48578837076823,531.2406616210938,144.3946075439453C531.6711547851562,145.3034267171224,533.9312133789062,162.22421427408855,533.9312133789062,163.22869873046875C533.9312133789062,164.23318318684895,531.7429028320313,181.39311848958334,531.2406616210938,182.06277465820312C530.7384204101562,182.7324308268229,516.1016528320313,188.12555847167968,515.09716796875,188.34080505371094C514.0926831054687,188.5560516357422,494.3138846842448,190.0388566080729,493.5724792480469,190.134521484375C492.83107381184897,190.2301863606771,487.7967061360677,191.88040547688803,487.2944641113281,191.92823791503906C486.79222208658854,191.9760703531901,475.5515576171875,191.83257263183594,474.7384033203125,191.92823791503906C473.9252490234375,192.02390319824218,457.92524373372396,195.42002075195313,456.8011779785156,195.51568603515625C455.6771122233073,195.61135131835937,433.90133382161457,195.51568603515625,432.5859375,195.51568603515625C431.27054117838543,195.51568603515625,408.3348022460938,195.51568603515625,407.47381591796875,195.51568603515625C406.6128295898437,195.51568603515625,400.8251082356771,195.58743489583333,400.2989501953125,195.51568603515625C399.7727921549479,195.44393717447917,388.62779256184893,192.9686014811198,387.7428894042969,192.82510375976562C386.8579862467448,192.68160603841145,367.8804032389323,190.25410278320314,367.1150817871094,190.134521484375C366.3497603352865,190.01494018554686,359.449912109375,188.48430277506512,359.0433349609375,188.34080505371094C358.6367578125,188.19730733235676,352.7533418782552,185.23168294270835,351.8684387207031,184.75335693359375C350.98353556315107,184.27503092447915,326.6247880045573,171.2884824625651,325.8594665527344,170.40357971191406C325.0941451009115,169.51867696126303,323.2406331380208,152.07174580891927,323.16888427734375,151.5695037841797" fill="none" stroke-width="1" stroke="hsl(0, 0%, 20%)" stroke-linecap="round"></path><defs><linearGradient id="SvgjsLinearGradient1004"><stop stop-color="hsl(37, 99%, 67%)" offset="0"></stop><stop stop-color="hsl(316, 73%, 52%)" offset="1"></stop></linearGradient></defs></svg>